<?xml version="1.0" encoding="UTF-8"?>
<svg version="1.1" xmlns="http://www.w3.org/2000/svg" width="300" height="300">
<path d="M0,0 L86,0 L86,24 L115,24 L151,60 L151,174 L-65,174 L-65,60 L-29,24 L0,24 Z M7,6 L7,24 L79,24 L79,6 Z " fill="#FF5959" transform="translate(107,54)"/>
<path d="M0,0 L70,0 L72,10 L74,11 L126,11 L129,8 L130,0 L200,0 L200,52 L0,52 Z " fill="#AF0000" transform="translate(50,168)"/>
<path d="M0,0 L200,0 L200,36 L130,36 L128,26 L126,25 L74,25 L71,28 L70,36 L0,36 Z " fill="#AF0000" transform="translate(50,126)"/>
<path d="M0,0 L134,0 L167,33 L167,36 L-33,36 L-32,32 Z " fill="#AF0000" transform="translate(83,84)"/>
<path d="M0,0 L44,0 L46,2 L46,16 L44,18 L0,18 L-2,16 L-2,2 Z " fill="#AF0000" transform="translate(128,156)"/>
</svg>
