<?xml version="1.0" standalone="no"?>
<!DOCTYPE svg PUBLIC "-//W3C//DTD SVG 20010904//EN"
 "http://www.w3.org/TR/2001/REC-SVG-20010904/DTD/svg10.dtd">
<svg version="1.0" xmlns="http://www.w3.org/2000/svg"
 width="300.000000pt" height="300.000000pt" viewBox="0 0 300.000000 300.000000"
 preserveAspectRatio="xMidYMid meet">

<g transform="translate(0.000000,300.000000) scale(0.100000,-0.100000)"
fill="#000000" stroke="none">
<path d="M60 1500 l0 -1440 1440 0 1440 0 0 1440 0 1440 -1440 0 -1440 0 0
-1440z m1860 840 l0 -120 150 0 150 0 0 -30 c0 -27 3 -30 30 -30 27 0 30 -3
30 -30 0 -27 3 -30 30 -30 27 0 30 -3 30 -30 0 -27 3 -30 30 -30 27 0 30 -3
30 -30 0 -27 3 -30 30 -30 27 0 30 -3 30 -30 0 -27 3 -30 30 -30 27 0 30 -3
30 -30 0 -27 3 -30 30 -30 l30 0 0 -570 0 -570 -1080 0 -1080 0 0 570 0 570
30 0 c27 0 30 3 30 30 0 27 3 30 30 30 27 0 30 3 30 30 0 27 3 30 30 30 27 0
30 3 30 30 0 27 3 30 30 30 27 0 30 3 30 30 0 27 3 30 30 30 27 0 30 3 30 30
0 27 3 30 30 30 27 0 30 3 30 30 l0 30 180 0 180 0 0 120 0 120 390 0 390 0 0
-120z"/>
<path d="M1200 2310 l0 -90 330 0 330 0 0 90 0 90 -330 0 -330 0 0 -90z"/>
<path d="M780 2130 c0 -27 -3 -30 -30 -30 -27 0 -30 -3 -30 -30 0 -27 -3 -30
-30 -30 -27 0 -30 -3 -30 -30 0 -27 -3 -30 -30 -30 -27 0 -30 -3 -30 -30 0
-27 -3 -30 -30 -30 -27 0 -30 -3 -30 -30 0 -27 -3 -30 -30 -30 -27 0 -30 -3
-30 -30 l0 -30 1020 0 1020 0 0 30 c0 27 -3 30 -30 30 -27 0 -30 3 -30 30 0
27 -3 30 -30 30 -27 0 -30 3 -30 30 0 27 -3 30 -30 30 -27 0 -30 3 -30 30 0
27 -3 30 -30 30 -27 0 -30 3 -30 30 0 27 -3 30 -30 30 -27 0 -30 3 -30 30 l0
30 -720 0 -720 0 0 -30z"/>
<path d="M480 1560 l0 -180 360 0 360 0 0 60 0 60 300 0 300 0 0 -60 0 -60
360 0 360 0 0 180 0 180 -1020 0 -1020 0 0 -180z"/>
<path d="M1260 1350 l0 -90 240 0 240 0 0 90 0 90 -240 0 -240 0 0 -90z"/>
<path d="M480 1050 l0 -270 1020 0 1020 0 0 270 0 270 -360 0 -360 0 0 -60 0
-60 -300 0 -300 0 0 60 0 60 -360 0 -360 0 0 -270z"/>
</g>
</svg>
